<svg width="25" height="26" viewBox="0 0 25 26" fill="none" xmlns="http://www.w3.org/2000/svg">
<g clip-path="url(#clip0_13_2631)">
<path d="M12.3218 12.5426C13.9762 12.5426 15.4088 11.9492 16.5794 10.7785C17.7499 9.60794 18.3433 8.17571 18.3433 6.52109C18.3433 4.86705 17.7499 3.43463 16.5792 2.26372C15.4085 1.09337 13.976 0.5 12.3218 0.5C10.6672 0.5 9.23494 1.09337 8.0644 2.26391C6.89386 3.43444 6.30029 4.86686 6.30029 6.52109C6.30029 8.17571 6.89386 9.60813 8.06459 10.7787C9.23532 11.949 10.6677 12.5426 12.3218 12.5426V12.5426Z" fill="#232323"/>
<path d="M22.8579 19.7237C22.8241 19.2366 22.7558 18.7052 22.6553 18.144C22.5538 17.5787 22.4232 17.0443 22.2668 16.5558C22.1052 16.0509 21.8855 15.5523 21.6139 15.0745C21.332 14.5786 21.0009 14.1468 20.6293 13.7915C20.2408 13.4197 19.7651 13.1209 19.215 12.9028C18.6668 12.686 18.0593 12.5761 17.4095 12.5761C17.1543 12.5761 16.9075 12.6808 16.4309 12.9912C16.1375 13.1825 15.7944 13.4037 15.4114 13.6484C15.0839 13.8571 14.6402 14.0526 14.0923 14.2296C13.5576 14.4026 13.0148 14.4903 12.479 14.4903C11.9432 14.4903 11.4006 14.4026 10.8654 14.2296C10.318 14.0528 9.87434 13.8573 9.54723 13.6486C9.16786 13.4062 8.82454 13.1849 8.5268 12.991C8.05073 12.6806 7.80373 12.5759 7.54852 12.5759C6.8985 12.5759 6.2912 12.686 5.74322 12.903C5.19352 13.1207 4.71764 13.4195 4.32873 13.7917C3.95737 14.1472 3.62606 14.5788 3.34454 15.0745C3.07312 15.5523 2.85339 16.0507 2.69165 16.556C2.53544 17.0444 2.40479 17.5787 2.30331 18.144C2.2028 18.7044 2.13451 19.236 2.10075 19.7243C2.06757 20.2026 2.05078 20.6991 2.05078 21.2005C2.05078 22.5055 2.46563 23.562 3.28369 24.3412C4.09164 25.11 5.16071 25.5001 6.46076 25.5001H18.4984C19.7985 25.5001 20.8672 25.1102 21.6753 24.3412C22.4936 23.5626 22.9084 22.5059 22.9084 21.2003C22.9082 20.6966 22.8912 20.1998 22.8579 19.7237V19.7237Z" fill="#232323"/>
</g>
<defs>
<clipPath id="clip0_13_2631">
<rect width="25" height="25" fill="white" transform="translate(0 0.5)"/>
</clipPath>
</defs>
</svg>
