<svg width="25" height="26" viewBox="0 0 25 26" fill="none" xmlns="http://www.w3.org/2000/svg">
<g clip-path="url(#clip0_13_2648)">
<path d="M3.92074 10.7271H1.1367C0.509043 10.7271 0 11.2362 0 11.8638V24.3638C0 24.9909 0.509043 25.5 1.1367 25.5H3.92074C4.5484 25.5 5.05692 24.9909 5.05692 24.3638V11.8638C5.05692 11.2362 4.5484 10.7271 3.92074 10.7271Z" fill="#232323"/>
<path d="M10.5687 14.1356H7.78465C7.15646 14.1356 6.64795 14.6447 6.64795 15.2723V24.3627C6.64795 24.9909 7.15646 25.4994 7.78465 25.4994H10.5687C11.1964 25.4994 11.7049 24.9904 11.7049 24.3627V15.2723C11.7049 14.6447 11.1964 14.1356 10.5687 14.1356Z" fill="#232323"/>
<path d="M17.2154 14.1356H14.4313C13.8037 14.1356 13.2952 14.6447 13.2952 15.2723V24.3627C13.2952 24.9909 13.8037 25.4994 14.4313 25.4994H17.2154C17.8436 25.4994 18.3521 24.9904 18.3521 24.3627V15.2723C18.3521 14.6447 17.8436 14.1356 17.2154 14.1356Z" fill="#232323"/>
<path d="M23.8633 10.7271H21.0793C20.4516 10.7271 19.9431 11.2362 19.9431 11.8638V24.3638C19.9431 24.9915 20.4516 25.5 21.0793 25.5H23.8633C24.491 25.5 25 24.9904 25 24.3638V11.8638C25 11.2362 24.491 10.7271 23.8633 10.7271Z" fill="#232323"/>
<path d="M12.8313 7.34576V9.39151C13.4504 9.35055 14.1031 9.06013 14.1031 8.37874C14.1031 7.67555 13.3877 7.4697 12.8313 7.34576Z" fill="#232323"/>
<path d="M11.0522 4.89732C11.0522 5.41434 11.4368 5.71328 12.2118 5.8686V4.01807C11.5076 4.03881 11.0522 4.45264 11.0522 4.89732Z" fill="#232323"/>
<path d="M12.5 0.5C9.05372 0.5 6.25 3.30426 6.25 6.75C6.25 10.1947 9.05372 12.9989 12.5 12.9989C15.9463 12.9989 18.75 10.1947 18.75 6.75C18.75 3.30426 15.9463 0.5 12.5 0.5ZM12.8314 10.4463V11.0862C12.8314 11.2622 12.6963 11.4378 12.5197 11.4378C12.3452 11.4378 12.2117 11.2622 12.2117 11.0862V10.4463C10.4654 10.4037 9.59681 9.36011 9.59681 8.54362C9.59681 8.13138 9.84628 7.89309 10.2367 7.89309C11.3941 7.89309 10.4941 9.31915 12.2117 9.39096V7.23138C10.6798 6.95319 9.75213 6.28138 9.75213 5.13457C9.75213 3.72979 10.9202 3.00532 12.2117 2.96489V2.41383C12.2117 2.23777 12.3452 2.06223 12.5197 2.06223C12.6963 2.06223 12.8314 2.23777 12.8314 2.41383V2.96489C13.6367 2.98617 15.2904 3.49149 15.2904 4.50479C15.2904 4.90745 14.9894 5.14468 14.6378 5.14468C13.9654 5.14468 13.975 4.03989 12.8314 4.01862V5.98191C14.1952 6.27181 15.4032 6.67447 15.4032 8.26596C15.4032 9.65 14.3702 10.3521 12.8314 10.4463Z" fill="#232323"/>
</g>
<defs>
<clipPath id="clip0_13_2648">
<rect width="25" height="25" fill="white" transform="translate(0 0.5)"/>
</clipPath>
</defs>
</svg>
