<svg width="25" height="25" viewBox="0 0 25 25" fill="none" xmlns="http://www.w3.org/2000/svg">
<g clip-path="url(#clip0_13_2680)">
<path d="M4.81144 16.6678C5.06284 16.8174 5.27869 17.0121 5.45093 17.2371H8.7061V14.0806L7.16259 13.1236C6.81882 12.9105 6.71293 12.459 6.92604 12.1153C7.1392 11.7716 7.59048 11.6657 7.93439 11.8787L9.43845 12.8112L10.7495 11.9984C8.13457 8.41283 8.7351 3.33221 12.2158 0.464604C6.48233 -1.45611 0.467906 2.8135 0.44076 8.94559C0.426601 12.1976 2.15793 15.0882 4.81144 16.6678V16.6678Z" fill="#232323"/>
<path d="M5.90894 18.7018H12.8419V20.3618H5.90894V18.7018Z" fill="#232323"/>
<path d="M10.1707 14.0806V17.237H13.2899C13.4556 17.0185 13.6622 16.8312 13.9027 16.6896C14.5683 16.2978 15.1794 15.8199 15.721 15.273C14.1911 14.9285 12.8172 14.1677 11.7247 13.1163C11.6831 13.1434 11.3828 13.3291 10.1707 14.0806Z" fill="#232323"/>
<path d="M17.5777 0.00238037C13.7374 0.00238037 10.5959 3.17576 10.5959 7.03297C10.5959 10.6611 13.3811 13.6655 16.9522 13.9861C21.085 14.3554 24.5595 11.0793 24.5595 7.03297C24.5595 3.18323 21.4275 0.00238037 17.5777 0.00238037V0.00238037ZM18.311 10.2073V10.3603C18.311 10.7648 17.9831 11.0927 17.5787 11.0927C17.1742 11.0927 16.8463 10.7648 16.8463 10.3603V10.2901C16.5089 10.2309 16.2006 10.1046 15.8112 9.84984C15.4727 9.62843 15.3778 9.17456 15.5992 8.83607C15.8207 8.49753 16.2746 8.40271 16.613 8.62408C16.97 8.85765 17.0857 8.87586 17.5737 8.87249C18.0449 8.86937 18.2326 8.49953 18.2693 8.28153C18.3022 8.0858 18.2652 7.82557 17.9022 7.69731C17.2942 7.48234 16.6707 7.23568 16.229 6.88923C15.2232 6.10034 15.5268 4.29851 16.8464 3.81901V3.71297C16.8464 3.30851 17.1743 2.98062 17.5787 2.98062C17.9832 2.98062 18.3111 3.30851 18.3111 3.71297V3.75359C18.6719 3.85543 18.9625 4.03965 19.1622 4.24265C19.4458 4.53101 19.4419 4.99468 19.1535 5.2783C18.8653 5.56177 18.402 5.55801 18.1184 5.27015C18.0775 5.23026 17.8519 5.04214 17.3635 5.18925C17.1685 5.24798 17.1161 5.45021 17.1047 5.5108C17.0808 5.63725 17.1148 5.7225 17.1329 5.73675C17.4092 5.95343 17.9236 6.15131 18.3904 6.31634C20.3206 6.9986 20.0855 9.56578 18.311 10.2073V10.2073Z" fill="#232323"/>
<path d="M7.08081 22.7053C7.08081 23.9706 8.11021 25 9.37552 25C10.6408 25 11.6702 23.9706 11.6702 22.7053V21.8265H7.08081V22.7053Z" fill="#232323"/>
</g>
<defs>
<clipPath id="clip0_13_2680">
<rect width="25" height="25" fill="white"/>
</clipPath>
</defs>
</svg>
